<svg xmlns="http://www.w3.org/2000/svg" width="1440" height="900" viewBox="0 0 1440 900">
  <style>
    text { font-family: -apple-system, BlinkMacSystemFont, "Segoe UI", sans-serif; fill: #1a1a1c; }
    .label { font-size: 12px; font-weight: 600; letter-spacing: .8px; fill: #6a6d73; }
    .small { font-size: 11px; fill: #6a6d73; }
    .control { fill: #f7f8fa; stroke: #dcdfe4; }
  </style>
  <rect width="1440" height="900" fill="#f2f3f5"/>
  <rect width="1440" height="42" fill="#ffffff" stroke="#dcdfe4"/>
  <text x="16" y="26" font-size="13">Project　 Edit　 Render　 Playback　 Settings</text>
  <g transform="translate(1010 8)">
    <rect class="control" width="94" height="26" rx="6" fill="#2f6df0"/>
    <text x="14" y="18" font-size="12" fill="#ffffff">◫ Inspector</text>
    <rect class="control" x="98" width="76" height="26" rx="6"/><text x="110" y="18" font-size="12">◇ Shape</text>
    <rect class="control" x="178" width="80" height="26" rx="6"/><text x="190" y="18" font-size="12">⌖ Marker</text>
    <rect class="control" x="262" width="76" height="26" rx="6"/><text x="274" y="18" font-size="12">※ Debug</text>
  </g>

  <g transform="translate(0 42)">
    <rect width="264" height="508" fill="#ffffff" stroke="#dcdfe4"/>
    <text class="label" x="12" y="26">ASSETS</text>
    <rect class="control" x="190" y="8" width="62" height="24" rx="6"/><text class="small" x="203" y="24">Import…</text>

    <rect x="264" width="448" height="508" fill="#ffffff" stroke="#dcdfe4"/>
    <text class="label" x="276" y="26">SOURCE MONITOR</text>
    <rect x="264" y="38" width="448" height="390" fill="#0b0b0d"/>
    <rect x="264" y="428" width="448" height="80" fill="#ffffff" stroke="#dcdfe4"/>

    <rect x="712" width="448" height="508" fill="#ffffff" stroke="#dcdfe4"/>
    <text class="label" x="724" y="26">PROGRAM MONITOR</text>
    <rect x="712" y="38" width="448" height="426" fill="#0b0b0d"/>
    <rect x="712" y="464" width="448" height="44" fill="#ffffff" stroke="#dcdfe4"/>

    <rect x="1160" width="280" height="508" fill="#ffffff" stroke="#dcdfe4"/>
    <text class="label" x="1172" y="26">INSPECTOR</text>
    <rect x="1160" y="38" width="280" height="34" fill="#f7f8fa" stroke="#dcdfe4"/>
    <text class="small" x="1168" y="59">Video　Audio　Effects　Transition　Image　File</text>
    <text x="1174" y="102" font-size="13" font-weight="600">Transform</text>
    <rect class="control" x="1174" y="116" width="118" height="28" rx="6"/>
    <rect class="control" x="1302" y="116" width="118" height="28" rx="6"/>
  </g>

  <g transform="translate(0 550)">
    <rect width="1440" height="44" fill="#ffffff" stroke="#dcdfe4"/>
    <text x="14" y="27" font-size="12">✂　⌁　⌫　⇥　 Link Clips　 + Text　│　+ Video track　+ Audio track　+ Subtitle track</text>
    <rect y="44" width="132" height="306" fill="#ffffff" stroke="#dcdfe4"/>
    <rect x="132" y="44" width="1308" height="306" fill="#f2f3f5" stroke="#dcdfe4"/>
    <line x1="132" y1="80" x2="1440" y2="80" stroke="#dcdfe4"/>
    <line x1="132" y1="144" x2="1440" y2="144" stroke="#dcdfe4"/>
    <line x1="132" y1="208" x2="1440" y2="208" stroke="#dcdfe4"/>
    <text class="label" x="14" y="118">VIDEO 1</text>
    <text class="label" x="14" y="182">VIDEO 2</text>
    <text class="label" x="14" y="246">AUDIO 1</text>
    <rect x="196" y="94" width="360" height="38" rx="5" fill="#cfe0ff" stroke="#5b8def"/>
    <rect x="360" y="222" width="420" height="34" rx="5" fill="#d3efdd" stroke="#41a86a"/>
    <line x1="480" y1="44" x2="480" y2="350" stroke="#f0a52f" stroke-width="2"/>
  </g>
</svg>
